<svg width="18" height="18" viewBox="0 0 18 18" fill="none" xmlns="http://www.w3.org/2000/svg">
<path opacity="0.4" d="M15.375 7.6425H13.2075C11.43 7.6425 9.9825 6.195 9.9825 4.4175V2.25C9.9825 1.8375 9.645 1.5 9.2325 1.5H6.0525C3.7425 1.5 1.875 3 1.875 5.6775V12.3225C1.875 15 3.7425 16.5 6.0525 16.5H11.9475C14.2575 16.5 16.125 15 16.125 12.3225V8.3925C16.125 7.98 15.7875 7.6425 15.375 7.6425Z" fill="#292D32"/>
<path d="M11.85 1.65749C11.5425 1.34999 11.01 1.55999 11.01 1.98749V4.60499C11.01 5.69999 11.94 6.60749 13.0725 6.60749C13.785 6.615 14.775 6.61499 15.6225 6.61499C16.05 6.61499 16.275 6.11249 15.975 5.81249C14.895 4.72499 12.96 2.76749 11.85 1.65749Z" fill="#292D32"/>
<path d="M8.64746 9.3525L7.14746 7.8525C7.13996 7.845 7.13246 7.845 7.13246 7.8375C7.08746 7.7925 7.02746 7.755 6.96746 7.725C6.95996 7.725 6.95996 7.725 6.95246 7.725C6.89246 7.7025 6.83246 7.695 6.77246 7.6875C6.74996 7.6875 6.73496 7.6875 6.71246 7.6875C6.66746 7.6875 6.61496 7.7025 6.56996 7.7175C6.54746 7.725 6.53246 7.7325 6.51746 7.74C6.45746 7.77 6.39746 7.8 6.35246 7.8525L4.85246 9.3525C4.63496 9.57 4.63496 9.93 4.85246 10.1475C5.06996 10.365 5.42996 10.365 5.64746 10.1475L6.18746 9.6075V12.75C6.18746 13.0575 6.44246 13.3125 6.74996 13.3125C7.05746 13.3125 7.31246 13.0575 7.31246 12.75V9.6075L7.85246 10.1475C7.96496 10.26 8.10746 10.3125 8.24996 10.3125C8.39246 10.3125 8.53496 10.26 8.64746 10.1475C8.86496 9.93 8.86496 9.57 8.64746 9.3525Z" fill="#292D32"/>
</svg>
