<svg width="18" height="18" viewBox="0 0 18 18" fill="none" xmlns="http://www.w3.org/2000/svg">
<path d="M7.5 1.5H3.75C3.15326 1.5 2.58097 1.73705 2.15901 2.15901C1.73705 2.58097 1.5 3.15326 1.5 3.75V14.25C1.5 14.8467 1.73705 15.419 2.15901 15.841C2.58097 16.2629 3.15326 16.5 3.75 16.5H11.25C11.8467 16.5 12.419 16.2629 12.841 15.841C13.2629 15.419 13.5 14.8467 13.5 14.25V13.371L12.3105 14.5605C12.0293 14.8418 11.6478 14.9999 11.25 15H9.75C9.35218 15 8.97064 14.842 8.68934 14.5607C8.40804 14.2794 8.25 13.8978 8.25 13.5V12C8.25008 11.6022 8.40818 11.2207 8.6895 10.9395L12.879 6.75H9.75C9.15326 6.75 8.58097 6.51295 8.15901 6.09099C7.73705 5.66903 7.5 5.09674 7.5 4.5V1.5Z" fill="#D5D5D5"/>
<path d="M9 4.49995V2.40295L12.2543 5.24995H9.75C9.55109 5.24995 9.36032 5.17094 9.21967 5.03028C9.07902 4.88963 9 4.69887 9 4.49995ZM13.7197 6.9697C13.8604 6.8291 14.0511 6.75011 14.25 6.75011C14.4489 6.75011 14.6396 6.8291 14.7803 6.9697L16.2803 8.46971C16.4209 8.61035 16.4998 8.80108 16.4998 8.99995C16.4998 9.19883 16.4209 9.38956 16.2803 9.5302L11.7802 14.0302C11.6396 14.1709 11.4489 14.2499 11.25 14.25H9.75C9.55109 14.25 9.36032 14.1709 9.21967 14.0303C9.07902 13.8896 9 13.6989 9 13.5V12C9.00004 11.8011 9.07909 11.6103 9.21975 11.4697L13.7197 6.9697Z" fill="#313131"/>
</svg>
